<?xml version="1.0" encoding="UTF-8"?>
<svg id="Layer_2" data-name="Layer 2" xmlns="http://www.w3.org/2000/svg" viewBox="0 0 1681.94 150.15">
  <defs>
    <style>
      .cls-1 {
        fill: none;
      }
    </style>
  </defs>
  <g id="Layer_1-2" data-name="Layer 1">
    <path class="cls-1" d="M128.31,38.01v108.99H51.66c-7.14,0-13.86-1.37-20.16-4.09-6.3-2.73-11.76-6.41-16.38-11.03-4.62-4.62-8.3-10.08-11.03-16.38S0,102.48,0,95.34v-5.67c0-7.14,1.36-13.86,4.09-20.16,2.73-6.3,6.41-11.76,11.03-16.38,4.62-4.62,10.08-8.29,16.38-11.02,6.3-2.73,13.02-4.1,20.16-4.1h76.65ZM99.54,66.78h-47.88c-3.08,0-6.02.6-8.82,1.79-2.8,1.19-5.25,2.83-7.35,4.94-2.1,2.1-3.75,4.52-4.94,7.24-1.19,2.73-1.78,5.71-1.78,8.92v5.67c0,3.08.59,6.02,1.78,8.82,1.19,2.8,2.84,5.25,4.94,7.35,2.1,2.1,4.55,3.75,7.35,4.94,2.8,1.19,5.74,1.79,8.82,1.79h47.88v-51.45ZM153.89,147v-57.33c0-7.14,1.36-13.86,4.09-20.16,2.73-6.3,6.41-11.76,11.03-16.38,4.62-4.62,10.08-8.29,16.38-11.02,6.3-2.73,13.02-4.1,20.16-4.1h24.99c7.14,0,13.89,1.37,20.27,4.1,6.37,2.73,12,6.69,16.9,11.87,4.9-5.18,10.57-9.14,17.01-11.87,6.44-2.73,13.23-4.1,20.37-4.1h24.78c7.14,0,13.86,1.37,20.16,4.1,6.3,2.73,11.76,6.4,16.38,11.02s8.29,10.08,11.02,16.38c2.73,6.3,4.1,13.02,4.1,20.16v57.33h-28.77v-57.33c0-3.22-.6-6.19-1.79-8.92-1.19-2.73-2.83-5.14-4.94-7.24s-4.52-3.74-7.25-4.94c-2.73-1.19-5.71-1.79-8.92-1.79h-24.78c-3.08,0-6.02.6-8.82,1.79-2.8,1.19-5.25,2.83-7.35,4.94s-3.75,4.52-4.94,7.24c-1.19,2.73-1.78,5.71-1.78,8.92v57.33h-28.77v-57.33c0-3.22-.6-6.19-1.79-8.92-1.19-2.73-2.83-5.14-4.94-7.24s-4.52-3.74-7.25-4.94c-2.73-1.19-5.71-1.79-8.92-1.79h-24.99c-3.08,0-6.02.6-8.82,1.79-2.8,1.19-5.25,2.83-7.35,4.94-2.1,2.1-3.75,4.52-4.94,7.24-1.19,2.73-1.78,5.71-1.78,8.92v57.33h-28.77ZM489.32,38.01c7.14,0,13.86,1.37,20.16,4.1,6.3,2.73,11.76,6.4,16.38,11.02s8.29,10.08,11.02,16.38c2.73,6.3,4.1,13.02,4.1,20.16v5.67c0,7.14-1.37,13.86-4.1,20.16s-6.4,11.76-11.02,16.38-10.08,8.29-16.38,11.03c-6.3,2.73-13.02,4.09-20.16,4.09h-82.32V0h28.77v118.23h53.55c3.22,0,6.19-.59,8.93-1.79,2.73-1.19,5.11-2.83,7.14-4.94,2.03-2.1,3.68-4.55,4.94-7.35,1.26-2.8,1.89-5.74,1.89-8.82v-5.67c0-3.22-.63-6.19-1.89-8.92-1.26-2.73-2.91-5.14-4.94-7.24-2.03-2.1-4.41-3.74-7.14-4.94-2.73-1.19-5.71-1.79-8.93-1.79h-40.53v-28.77h40.53ZM671.2,38.01v28.77h-59.22c-3.08,0-6.02.6-8.82,1.79-2.8,1.19-5.25,2.83-7.35,4.94-2.1,2.1-3.75,4.52-4.94,7.24-1.19,2.73-1.78,5.71-1.78,8.92v57.33h-28.77v-57.33c0-7.14,1.36-13.86,4.09-20.16,2.73-6.3,6.41-11.76,11.03-16.38,4.62-4.62,10.08-8.29,16.38-11.02,6.3-2.73,13.02-4.1,20.16-4.1h59.22ZM764.73,38.01c7.14,0,13.86,1.37,20.16,4.1,6.3,2.73,11.76,6.4,16.38,11.02,4.62,4.62,8.29,10.08,11.02,16.38,2.73,6.3,4.09,13.02,4.09,20.16v5.67c0,7.14-1.36,13.86-4.09,20.16s-6.41,11.76-11.02,16.38c-4.62,4.62-10.08,8.29-16.38,11.03-6.3,2.73-13.02,4.09-20.16,4.09h-29.61c-7.14,0-13.86-1.37-20.16-4.09-6.3-2.73-11.76-6.41-16.38-11.03-4.62-4.62-8.3-10.08-11.03-16.38s-4.09-13.02-4.09-20.16v-5.67c0-7.14,1.36-13.86,4.09-20.16,2.73-6.3,6.41-11.76,11.03-16.38,4.62-4.62,10.08-8.29,16.38-11.02,6.3-2.73,13.02-4.1,20.16-4.1h29.61ZM787.62,89.67c0-3.22-.6-6.19-1.79-8.92-1.19-2.73-2.83-5.14-4.94-7.24s-4.52-3.74-7.25-4.94c-2.73-1.19-5.71-1.79-8.92-1.79h-29.61c-3.08,0-6.02.6-8.82,1.79-2.8,1.19-5.25,2.83-7.35,4.94-2.1,2.1-3.75,4.52-4.94,7.24-1.19,2.73-1.78,5.71-1.78,8.92v5.67c0,3.08.59,6.02,1.78,8.82,1.19,2.8,2.84,5.25,4.94,7.35,2.1,2.1,4.55,3.75,7.35,4.94,2.8,1.19,5.74,1.79,8.82,1.79h29.61c3.22,0,6.19-.59,8.92-1.79,2.73-1.19,5.15-2.83,7.25-4.94,2.1-2.1,3.74-4.55,4.94-7.35,1.19-2.8,1.79-5.74,1.79-8.82v-5.67ZM934.07,38.01c2.38,0,4.55.63,6.51,1.89,1.96,1.26,3.5,2.94,4.62,5.04,1.12,2.1,1.58,4.34,1.37,6.72-.21,2.38-1.02,4.55-2.42,6.51l-68.25,60.06h66.99v28.77h-101.64c-2.38,0-4.59-.63-6.61-1.89-2.03-1.26-3.61-2.94-4.73-5.04-1.12-2.1-1.58-4.34-1.37-6.72.21-2.38,1.08-4.55,2.62-6.51l68.25-60.06h-66.99v-28.77h101.64ZM980.73,32.97c-4.76,0-8.61-1.54-11.55-4.62-3.36-3.36-4.9-7.28-4.62-11.76-.28-4.48,1.26-8.4,4.62-11.76,2.94-3.22,6.79-4.83,11.55-4.83s8.75,1.58,11.97,4.73c3.22,3.15,4.83,7.11,4.83,11.86s-1.61,8.86-4.83,11.87c-3.22,3.01-7.21,4.52-11.97,4.52ZM966.66,147V38.01h28.77v108.99h-28.77ZM1146.86,98.91h-101.01c.84,5.6,3.39,10.22,7.67,13.86,4.27,3.64,9.2,5.46,14.81,5.46h72.87v28.77h-72.87c-7.14,0-13.86-1.37-20.16-4.09-6.3-2.73-11.76-6.41-16.38-11.03s-8.29-10.08-11.03-16.38c-2.73-6.3-4.09-13.02-4.09-20.16v-5.67c0-7.14,1.37-13.86,4.09-20.16,2.73-6.3,6.41-11.76,11.03-16.38s10.08-8.29,16.38-11.02,13.02-4.1,20.16-4.1h27.3c7.14,0,13.82,1.33,20.05,3.99,6.23,2.66,11.66,6.3,16.28,10.92s8.26,10.05,10.92,16.27c2.66,6.23,3.99,12.85,3.99,19.84v9.87ZM1118.09,85.89c-.84-3.5-2.24-6.72-4.2-9.66-1.68-2.38-4.06-4.55-7.14-6.51-3.08-1.96-7.21-2.94-12.39-2.94h-26.04c-5.6,0-10.54,1.82-14.81,5.46-4.27,3.64-6.82,8.19-7.67,13.65h72.24ZM1151.46,38.01h32.34l35.49,76.65,16.8-36.12-19.11-40.53h32.34l35.49,76.65,35.7-76.65h32.34l-47.25,99.54c-1.96,3.92-4.76,7-8.4,9.24-3.64,2.24-7.63,3.36-11.97,3.36s-8.65-1.16-12.5-3.47c-3.85-2.31-6.82-5.49-8.92-9.55l-11.76-24.78-11.97,25.2c-1.96,3.92-4.76,7-8.4,9.24-3.64,2.24-7.63,3.36-11.97,3.36s-8.65-1.16-12.5-3.47c-3.85-2.31-6.83-5.49-8.92-9.55l-46.83-99.12ZM1382.79,32.97c-4.76,0-8.61-1.54-11.55-4.62-3.36-3.36-4.9-7.28-4.62-11.76-.28-4.48,1.26-8.4,4.62-11.76,2.94-3.22,6.79-4.83,11.55-4.83s8.75,1.58,11.97,4.73c3.22,3.15,4.83,7.11,4.83,11.86s-1.61,8.86-4.83,11.87c-3.22,3.01-7.21,4.52-11.97,4.52ZM1368.72,147V38.01h28.77v108.99h-28.77ZM1418.72,89.67c0-7.14,1.37-13.82,4.09-20.05,2.73-6.23,6.44-11.69,11.13-16.38,4.69-4.69,10.15-8.36,16.38-11.02,6.23-2.66,12.92-3.99,20.06-3.99h76.65v28.77h-76.65c-3.08,0-6.02.6-8.82,1.78-2.8,1.19-5.25,2.83-7.35,4.94-2.1,2.1-3.75,4.52-4.94,7.24-1.19,2.73-1.79,5.71-1.79,8.92v5.46c0,3.08.59,6.02,1.79,8.82,1.19,2.8,2.83,5.25,4.94,7.35,2.1,2.1,4.55,3.75,7.35,4.94,2.8,1.19,5.74,1.79,8.82,1.79h76.65v28.77h-76.65c-7.14,0-13.83-1.37-20.06-4.09-6.23-2.73-11.69-6.41-16.38-11.03-4.69-4.62-8.4-10.04-11.13-16.27-2.73-6.23-4.09-12.92-4.09-20.06v-5.88ZM1669.4,38.01c2.38,0,4.55.63,6.51,1.89,1.96,1.26,3.5,2.94,4.62,5.04,1.12,2.1,1.58,4.34,1.37,6.72-.21,2.38-1.02,4.55-2.42,6.51l-68.25,60.06h66.99v28.77h-101.64c-2.38,0-4.59-.63-6.62-1.89-2.03-1.26-3.61-2.94-4.72-5.04-1.12-2.1-1.58-4.34-1.37-6.72.21-2.38,1.08-4.55,2.62-6.51l68.25-60.06h-66.99v-28.77h101.64Z"/>
  </g>
</svg>